<svg width="290" height="192" viewBox="0 0 290 192" fill="none" xmlns="http://www.w3.org/2000/svg">
<g clip-path="url(#clip0_5467_41332)">
<path d="M144.483 105.451C144.315 105.405 141.728 104.738 138.979 104.738C133.774 104.738 130.641 107.549 130.641 111.734C130.641 115.439 133.262 117.286 136.408 118.28C136.757 118.395 137.271 118.556 137.613 118.669C139.014 119.11 140.132 119.764 140.132 120.898C140.132 122.166 138.84 122.987 136.031 122.987C133.563 122.987 131.197 122.281 130.698 122.156V127.305C130.976 127.364 133.788 127.916 136.792 127.916C141.113 127.916 146.056 126.028 146.056 120.407C146.056 117.681 144.387 115.171 140.722 114.006L139.165 113.51C138.235 113.217 136.576 112.741 136.576 111.379C136.576 110.303 137.805 109.545 140.069 109.545C142.022 109.545 144.399 110.202 144.483 110.228V105.451ZM192.202 116.327C192.202 119.583 189.708 122.217 186.362 122.217C183.012 122.217 180.525 119.583 180.525 116.327C180.525 113.078 183.012 110.443 186.362 110.443C189.708 110.443 192.202 113.078 192.202 116.327ZM186.362 104.745C179.479 104.745 174.544 109.936 174.544 116.327C174.544 122.729 179.479 127.916 186.362 127.916C193.243 127.916 198.186 122.729 198.186 116.327C198.186 109.936 193.243 104.745 186.362 104.745ZM123.069 127.518H117.422V105.142H123.069" fill="#BBC4D2"></path>
<path d="M109.658 105.548C109.128 105.391 107.166 104.746 104.51 104.746C97.638 104.746 92.5938 109.646 92.5938 116.328C92.5938 123.538 98.1621 127.917 104.51 127.917C107.031 127.917 108.957 127.319 109.658 127.12V121.114C109.416 121.248 107.57 122.301 104.914 122.301C101.153 122.301 98.7261 119.654 98.7261 116.328C98.7261 112.901 101.257 110.36 104.914 110.36C107.615 110.36 109.431 111.436 109.658 111.554" fill="#BBC4D2"></path>
<path d="M168.596 105.548C168.065 105.39 166.104 104.746 163.447 104.746C156.576 104.746 151.531 109.645 151.531 116.328C151.531 123.538 157.1 127.917 163.447 127.917C165.969 127.917 167.894 127.319 168.596 127.12V121.114C168.353 121.248 166.507 122.301 163.852 122.301C160.09 122.301 157.664 119.653 157.664 116.328C157.664 112.901 160.195 110.36 163.852 110.36C166.553 110.36 168.369 111.436 168.596 111.554" fill="#BBC4D2"></path>
<path d="M117.403 62.84C117.403 61.2977 116.144 60.0469 114.6 60.0469C113.056 60.0469 111.796 61.2977 111.796 62.84V92.5536C111.796 94.1049 113.056 95.355 114.6 95.355C116.144 95.355 117.403 94.1049 117.403 92.5536V62.84ZM102.005 73.3876C102.005 71.8459 100.745 70.5933 99.2014 70.5933C97.6573 70.5933 96.3981 71.8459 96.3981 73.3876V86.9716C96.3981 88.5222 97.6573 89.773 99.2014 89.773C100.745 89.773 102.005 88.5222 102.005 86.9716V73.3876ZM86.6065 81.0974C86.6065 79.5551 85.3473 78.3049 83.8032 78.3049C82.2609 78.3049 81 79.5551 81 81.0974V86.9716C81 88.5222 82.2609 89.773 83.8032 89.773C85.3473 89.773 86.6065 88.5222 86.6065 86.9716" fill="#BBC4D2"></path>
<path d="M111.8 62.84C111.8 61.2977 113.059 60.0469 114.604 60.0469C116.147 60.0469 117.407 61.2977 117.407 62.84V92.5536C117.407 94.1049 116.147 95.355 114.604 95.355C113.059 95.355 111.8 94.1049 111.8 92.5536V62.84ZM127.199 73.3876C127.199 71.8459 128.458 70.5933 130.002 70.5933C131.546 70.5933 132.805 71.8459 132.805 73.3876V86.9716C132.805 88.5222 131.546 89.773 130.002 89.773C128.458 89.773 127.199 88.5222 127.199 86.9716V73.3876ZM142.597 81.0974C142.597 79.5551 143.856 78.3049 145.4 78.3049C146.942 78.3049 148.203 79.5551 148.203 81.0974V86.9716C148.203 88.5222 146.942 89.773 145.4 89.773C143.856 89.773 142.597 88.5222 142.597 86.9716" fill="#BBC4D2"></path>
<path d="M173.378 62.84C173.378 61.2977 174.638 60.0469 176.182 60.0469C177.725 60.0469 178.985 61.2977 178.985 62.84V92.5536C178.985 94.1049 177.725 95.355 176.182 95.355C174.638 95.355 173.378 94.1049 173.378 92.5536V62.84ZM188.777 73.3876C188.777 71.8459 190.036 70.5933 191.58 70.5933C193.124 70.5933 194.383 71.8459 194.383 73.3876V86.9716C194.383 88.5222 193.124 89.773 191.58 89.773C190.036 89.773 188.777 88.5222 188.777 86.9716V73.3876ZM204.175 81.0974C204.175 79.5551 205.434 78.3049 206.978 78.3049C208.52 78.3049 209.781 79.5551 209.781 81.0974V86.9716C209.781 88.5222 208.52 89.773 206.978 89.773C205.434 89.773 204.175 88.5222 204.175 86.9716" fill="#BBC4D2"></path>
<path d="M178.981 62.84C178.981 61.2977 177.722 60.0469 176.178 60.0469C174.634 60.0469 173.374 61.2977 173.374 62.84V92.5536C173.374 94.1049 174.634 95.355 176.178 95.355C177.722 95.355 178.981 94.1049 178.981 92.5536V62.84ZM163.583 73.3876C163.583 71.8459 162.324 70.5933 160.78 70.5933C159.235 70.5933 157.976 71.8459 157.976 73.3876V86.9716C157.976 88.5222 159.235 89.773 160.78 89.773C162.324 89.773 163.583 88.5222 163.583 86.9716V73.3876ZM148.185 81.0974C148.185 79.5551 146.925 78.3049 145.381 78.3049C143.839 78.3049 142.578 79.5551 142.578 81.0974V86.9716C142.578 88.5222 143.839 89.773 145.381 89.773C146.925 89.773 148.185 88.5222 148.185 86.9716" fill="#BBC4D2"></path>
</g>
<defs>
<clipPath id="clip0_5467_41332">
<rect width="128.775" height="67.9645" fill="white" transform="translate(81 60)"></rect>
</clipPath>
</defs>
</svg>
