<svg width="290" height="192" viewBox="0 0 290 192" fill="none" xmlns="http://www.w3.org/2000/svg">
<g clip-path="url(#clip0_5467_41285)">
<path d="M206.263 90.1478H201.345C198.173 90.1478 196.428 92.5273 196.428 96.6517V111.404H186.91V90.1478H182.944C179.772 90.1478 178.027 92.5273 178.027 96.6517V111.404H168.509V82.2163H178.027V86.6579C179.613 83.1681 181.675 82.2163 184.848 82.2163H196.428V86.6579C198.014 83.1681 200.076 82.2163 203.249 82.2163H206.422L206.263 90.1478ZM166.288 99.0311H146.618C147.094 102.362 149.156 104.107 152.487 104.107C155.025 104.107 156.77 102.997 157.405 101.252L165.812 103.631C163.75 108.708 158.674 111.722 152.487 111.722C142.176 111.722 137.417 103.631 137.417 96.6517C137.417 89.8305 141.542 81.7404 151.853 81.7404C162.798 81.7404 166.447 89.9892 166.447 96.1758C166.447 97.6034 166.447 98.3966 166.288 99.0311ZM157.246 93.479C157.087 90.941 155.184 88.7201 152.011 88.7201C148.997 88.7201 147.252 89.9892 146.618 93.479H157.246ZM120.92 111.404H129.168L139.638 82.3749H130.12L125.044 99.3484L119.968 82.2163H110.45L120.92 111.404ZM82.2138 111.404H91.573V90.1478H100.615V111.404H109.974V82.2163H91.573V80.4713C91.573 78.5678 93.0006 77.2987 95.0628 77.2987H100.615V69.3672H93.6352C86.814 69.3672 82.2138 73.6502 82.2138 79.8368V82.2163H76.8203V90.1478H82.2138V111.404Z" fill="#BBC4D2"></path>
<path d="M212.135 112.204C215.308 112.204 218.004 109.507 218.004 106.334C218.004 103.162 215.308 100.465 212.135 100.465C208.962 100.465 206.266 103.162 206.266 106.334C206.266 109.507 208.962 112.204 212.135 112.204Z" fill="#BBC4D2"></path>
</g>
<defs>
<clipPath id="clip0_5467_41285">
<rect width="141.181" height="42.8303" fill="white" transform="translate(76.8203 69.3711)"></rect>
</clipPath>
</defs>
</svg>
